<?xml version="1.0" standalone="no"?>
<!DOCTYPE svg PUBLIC "-//W3C//DTD SVG 20010904//EN"
 "http://www.w3.org/TR/2001/REC-SVG-20010904/DTD/svg10.dtd">
<svg version="1.0" xmlns="http://www.w3.org/2000/svg"
 width="64.000000pt" height="64.000000pt" viewBox="0 0 64.000000 64.000000"
 preserveAspectRatio="xMidYMid meet">

<g transform="translate(0.000000,64.000000) scale(0.100000,-0.100000)"
fill="white" stroke="none">
<path d="M231 606 c-28 -16 -50 -52 -51 -83 0 -21 -5 -23 -55 -23 l-55 0 0
-240 0 -240 260 0 260 0 0 240 0 240 -50 0 c-43 0 -50 3 -50 20 0 33 -23 71
-51 86 -33 17 -71 18 -86 3 -8 -8 -17 -8 -31 0 -27 15 -61 13 -91 -3z m104
-31 c14 -13 25 -36 25 -50 0 -20 -5 -25 -26 -25 -26 0 -26 2 -20 43 5 39 5 40
-9 23 -8 -11 -15 -30 -15 -43 0 -21 -5 -23 -45 -23 -42 0 -45 2 -45 25 0 36
42 75 80 75 19 0 40 -9 55 -25z m110 0 c14 -13 25 -36 25 -50 0 -23 -3 -25
-45 -25 -39 0 -45 3 -45 20 0 12 -7 34 -15 50 l-16 30 36 0 c25 0 44 -8 60
-25z m25 -315 l0 -220 -190 0 -190 0 0 220 0 220 190 0 190 0 0 -220z m50 21
c0 -164 -3 -201 -15 -211 -13 -11 -15 12 -15 199 0 181 2 211 15 211 13 0 15
-29 15 -199z m50 -12 c0 -187 -2 -210 -15 -199 -12 10 -15 47 -15 211 0 170 2
199 15 199 13 0 15 -30 15 -211z m-25 -219 c3 -5 -3 -10 -15 -10 -12 0 -18 5
-15 10 3 6 10 10 15 10 5 0 12 -4 15 -10z"/>
<path d="M235 411 c-73 -32 -96 -133 -42 -188 22 -23 27 -38 27 -76 0 -51 4
-55 38 -31 20 14 24 14 44 0 34 -24 38 -20 38 31 0 38 5 53 28 76 22 23 27 37
27 77 0 42 -5 54 -31 81 -33 33 -92 46 -129 30z m94 -25 c67 -35 65 -143 -4
-174 -91 -41 -179 51 -131 137 26 47 84 63 135 37z m-9 -229 c0 -25 -2 -27
-20 -17 -14 8 -26 8 -40 0 -18 -10 -20 -8 -20 17 0 26 3 28 40 28 37 0 40 -2
40 -28z"/>
<path d="M214 356 c-10 -26 4 -48 28 -44 33 4 33 52 0 56 -13 2 -25 -3 -28
-12z m36 -16 c0 -5 -4 -10 -10 -10 -5 0 -10 5 -10 10 0 6 5 10 10 10 6 0 10
-4 10 -10z"/>
<path d="M270 305 c-29 -30 -51 -58 -47 -62 8 -7 117 95 117 109 0 18 -18 5
-70 -47z"/>
<path d="M294 276 c-10 -26 4 -48 28 -44 17 2 23 10 23 28 0 18 -6 26 -23 28
-13 2 -25 -3 -28 -12z m36 -16 c0 -5 -4 -10 -10 -10 -5 0 -10 5 -10 10 0 6 5
10 10 10 6 0 10 -4 10 -10z"/>
</g>
</svg>
