<?xml version="1.0" standalone="no"?>
<!DOCTYPE svg PUBLIC "-//W3C//DTD SVG 20010904//EN"
 "http://www.w3.org/TR/2001/REC-SVG-20010904/DTD/svg10.dtd">
<svg version="1.0" xmlns="http://www.w3.org/2000/svg"
 width="32.000000pt" height="32.000000pt" viewBox="0 0 32.000000 32.000000"
 preserveAspectRatio="xMidYMid meet">

<g transform="translate(0.000000,32.000000) scale(0.100000,-0.100000)"
fill="white" stroke="none">
<path d="M102 246 c-40 -41 -72 -79 -72 -86 0 -7 32 -45 72 -86 l71 -74 66 0
66 0 -80 80 -80 80 80 80 80 80 -66 0 -66 0 -71 -74z m108 -11 l-74 -75 74
-75 74 -75 -56 0 -56 0 -67 75 -67 75 67 75 67 75 56 0 56 0 -74 -75z"/>
</g>
</svg>
