<?xml version="1.0" standalone="no"?>
<!DOCTYPE svg PUBLIC "-//W3C//DTD SVG 20010904//EN"
 "http://www.w3.org/TR/2001/REC-SVG-20010904/DTD/svg10.dtd">
<svg version="1.0" xmlns="http://www.w3.org/2000/svg"
 width="32.000000pt" height="32.000000pt" viewBox="0 0 32.000000 32.000000"
 preserveAspectRatio="xMidYMid meet">

<g transform="translate(0.000000,32.000000) scale(0.100000,-0.100000)"
fill="white" stroke="none">
<path d="M95 240 l80 -80 -80 -80 -80 -80 65 0 65 0 72 72 c40 40 73 79 73 88
0 9 -33 48 -73 88 l-72 72 -65 0 -65 0 80 -80z m120 -5 l67 -75 -67 -75 -67
-75 -56 0 -56 0 74 75 74 75 -74 75 -74 75 56 0 56 0 67 -75z"/>
</g>
</svg>
